<svg width="733" height="107" viewBox="0 0 733 107" fill="none" xmlns="http://www.w3.org/2000/svg">
<path d="M0 59.1667H47.3333V0H0V59.1667ZM59.1667 106.5H106.5V47.3333H59.1667V106.5Z" fill="#818CF8"/>
<path opacity="0.5" d="M0 106.5H47.3333V71H0V106.5ZM59.1667 0V35.5H106.5V0H59.1667Z" fill="#818CF8"/>
<path d="M163.2 58.4C165.4 50.7 167.6 42.3 169.5 34.2H170C172.1 42.2 174.1 50.7 176.4 58.4L178.6 66.5H161L163.2 58.4ZM137.6 97H152.6L157.8 78H181.8L187 97H202.5L178.7 22.9H161.3L137.6 97Z" fill="#374151"/>
<path d="M229.663 98.4C235.463 98.4 241.063 95.2 245.163 91.2H245.563L246.663 97H258.563V17.2H243.963V36.9L244.463 45.7C240.463 42 236.563 39.6 230.263 39.6C218.163 39.6 206.763 50.8 206.763 69C206.763 87.4 215.763 98.4 229.663 98.4ZM233.463 86.3C226.063 86.3 221.863 80.5 221.863 68.9C221.863 57.7 227.163 51.7 233.463 51.7C236.963 51.7 240.563 52.8 243.963 55.9V80.5C240.663 84.7 237.363 86.3 233.463 86.3Z" fill="#374151"/>
<path d="M274.318 97H289.018V58.5C292.918 54.3 296.518 52.2 299.718 52.2C305.018 52.2 307.618 55.2 307.618 63.9V97H322.218V58.5C326.218 54.3 329.818 52.2 333.018 52.2C338.318 52.2 340.818 55.2 340.818 63.9V97H355.518V62.1C355.518 48 350.018 39.6 338.118 39.6C330.818 39.6 325.418 44 320.318 49.4C317.618 43.2 312.918 39.6 304.918 39.6C297.618 39.6 292.418 43.6 287.718 48.5H287.418L286.318 41H274.318V97Z" fill="#374151"/>
<path d="M370.705 97H385.405V41H370.705V97ZM378.105 32C383.105 32 386.605 28.8 386.605 23.9C386.605 19.1 383.105 15.9 378.105 15.9C373.005 15.9 369.505 19.1 369.505 23.9C369.505 28.8 373.005 32 378.105 32Z" fill="#374151"/>
<path d="M401.076 97H415.776V58.5C419.876 54.4 422.776 52.2 427.376 52.2C432.876 52.2 435.276 55.2 435.276 63.9V97H449.976V62.1C449.976 48 444.776 39.6 432.676 39.6C425.076 39.6 419.376 43.6 414.476 48.4H414.176L413.076 41H401.076V97Z" fill="#374151"/>
<path d="M466.338 97H481.138V70.7H491.038C506.938 70.7 519.638 63.1 519.638 46.2C519.638 28.7 507.038 22.9 490.638 22.9H466.338V97ZM481.138 59V34.7H489.538C499.738 34.7 505.138 37.6 505.138 46.2C505.138 54.7 500.238 59 490.038 59H481.138Z" fill="#374151"/>
<path d="M541.536 98.4C547.936 98.4 553.536 95.2 558.436 91H558.836L559.836 97H571.836V64.3C571.836 48.1 564.536 39.6 550.336 39.6C541.536 39.6 533.536 42.9 526.936 47L532.236 56.7C537.436 53.7 542.436 51.4 547.636 51.4C554.536 51.4 556.936 55.6 557.236 61.1C534.636 63.5 524.936 69.8 524.936 81.8C524.936 91.3 531.536 98.4 541.536 98.4ZM546.336 86.9C542.036 86.9 538.936 85 538.936 80.6C538.936 75.6 543.536 71.8 557.236 70.1V81.4C553.636 84.9 550.536 86.9 546.336 86.9Z" fill="#374151"/>
<path d="M586.818 97H601.518V58.5C605.618 54.4 608.518 52.2 613.118 52.2C618.618 52.2 621.018 55.2 621.018 63.9V97H635.718V62.1C635.718 48 630.518 39.6 618.418 39.6C610.818 39.6 605.118 43.6 600.218 48.4H599.918L598.818 41H586.818V97Z" fill="#374151"/>
<path d="M675.281 98.4C682.181 98.4 689.281 96 694.781 92.2L689.781 83.2C685.781 85.7 681.781 87.1 677.181 87.1C668.881 87.1 662.881 82.3 661.681 73.1H696.181C696.581 71.8 696.881 69.1 696.881 66.3C696.881 50.9 688.881 39.6 673.481 39.6C660.181 39.6 647.381 50.9 647.381 69C647.381 87.5 659.581 98.4 675.281 98.4ZM661.481 63.3C662.581 55.2 667.781 51 673.681 51C680.881 51 684.281 55.8 684.281 63.3H661.481Z" fill="#374151"/>
<path d="M722.786 98.4C726.286 98.4 728.686 97.8 730.386 97.1L728.586 86.2C727.586 86.4 727.186 86.4 726.586 86.4C725.186 86.4 723.686 85.3 723.686 81.9V17.2H708.986V81.3C708.986 91.7 712.586 98.4 722.786 98.4Z" fill="#374151"/>
</svg>
